<?xml version="1.0" encoding="UTF-8"?>
<mxfile host="65bd71144e">
    <diagram id="C5RBs43oDa-KdzZeNtuy" name="Page-1">
        <mxGraphModel dx="1422" dy="794" grid="1" gridSize="10" guides="1" tooltips="1" connect="1" arrows="1" fold="1" page="1" pageScale="1" pageWidth="1169" pageHeight="827" math="0" shadow="0">
            <root>
                <mxCell id="WIyWlLk6GJQsqaUBKTNV-0"/>
                <mxCell id="WIyWlLk6GJQsqaUBKTNV-1" parent="WIyWlLk6GJQsqaUBKTNV-0"/>
                
                <!-- User -->
                <mxCell id="user-1" value="ユーザー" style="shape=umlActor;verticalLabelPosition=bottom;verticalAlign=top;html=1;outlineConnect=0;fillColor=#dae8fc;strokeColor=#6c8ebf;" vertex="1" parent="WIyWlLk6GJQsqaUBKTNV-1">
                    <mxGeometry x="50" y="100" width="30" height="60" as="geometry"/>
                </mxCell>
                
                <!-- GitHub -->
                <mxCell id="github-1" value="GitHub" style="rounded=1;whiteSpace=wrap;html=1;fillColor=#f8cecc;strokeColor=#b85450;" vertex="1" parent="WIyWlLk6GJQsqaUBKTNV-1">
                    <mxGeometry x="150" y="110" width="80" height="40" as="geometry"/>
                </mxCell>
                
                <!-- CodePipeline -->
                <mxCell id="codepipeline-1" value="AWS CodePipeline" style="rounded=1;whiteSpace=wrap;html=1;fillColor=#fff2cc;strokeColor=#d6b656;" vertex="1" parent="WIyWlLk6GJQsqaUBKTNV-1">
                    <mxGeometry x="300" y="110" width="120" height="40" as="geometry"/>
                </mxCell>
                
                <!-- Source Stage -->
                <mxCell id="source-1" value="Source Stage&#10;(GitHub)" style="rounded=1;whiteSpace=wrap;html=1;fillColor=#e1d5e7;strokeColor=#9673a6;" vertex="1" parent="WIyWlLk6GJQsqaUBKTNV-1">
                    <mxGeometry x="480" y="60" width="100" height="50" as="geometry"/>
                </mxCell>
                
                <!-- Build Stage -->
                <mxCell id="build-1" value="Build Stage&#10;(CodeBuild)" style="rounded=1;whiteSpace=wrap;html=1;fillColor=#e1d5e7;strokeColor=#9673a6;" vertex="1" parent="WIyWlLk6GJQsqaUBKTNV-1">
                    <mxGeometry x="480" y="130" width="100" height="50" as="geometry"/>
                </mxCell>
                
                <!-- Deploy Stage -->
                <mxCell id="deploy-1" value="Deploy Stage&#10;(CodeDeploy)" style="rounded=1;whiteSpace=wrap;html=1;fillColor=#e1d5e7;strokeColor=#9673a6;" vertex="1" parent="WIyWlLk6GJQsqaUBKTNV-1">
                    <mxGeometry x="480" y="200" width="100" height="50" as="geometry"/>
                </mxCell>
                
                <!-- CodeBuild -->
                <mxCell id="codebuild-1" value="AWS CodeBuild&#10;(CDK実行)" style="rounded=1;whiteSpace=wrap;html=1;fillColor=#d5e8d4;strokeColor=#82b366;" vertex="1" parent="WIyWlLk6GJQsqaUBKTNV-1">
                    <mxGeometry x="650" y="130" width="100" height="50" as="geometry"/>
                </mxCell>
                
                <!-- Image Builder -->
                <mxCell id="imagebuilder-1" value="AWS Image Builder&#10;(Pipeline作成)" style="rounded=1;whiteSpace=wrap;html=1;fillColor=#d5e8d4;strokeColor=#82b366;" vertex="1" parent="WIyWlLk6GJQsqaUBKTNV-1">
                    <mxGeometry x="800" y="130" width="120" height="50" as="geometry"/>
                </mxCell>
                
                <!-- CodeDeploy -->
                <mxCell id="codedeploy-1" value="AWS CodeDeploy&#10;(AMI作成)" style="rounded=1;whiteSpace=wrap;html=1;fillColor=#d5e8d4;strokeColor=#82b366;" vertex="1" parent="WIyWlLk6GJQsqaUBKTNV-1">
                    <mxGeometry x="650" y="200" width="100" height="50" as="geometry"/>
                </mxCell>
                
                <!-- EventBridge -->
                <mxCell id="eventbridge-1" value="AWS EventBridge&#10;(AMI作成完了検知)" style="rounded=1;whiteSpace=wrap;html=1;fillColor=#ffe6cc;strokeColor=#d79b00;" vertex="1" parent="WIyWlLk6GJQsqaUBKTNV-1">
                    <mxGeometry x="630" y="300" width="140" height="50" as="geometry"/>
                </mxCell>
                
                <!-- Step Functions -->
                <mxCell id="stepfunctions-1" value="AWS Step Functions&#10;(ワークフロー管理)" style="rounded=1;whiteSpace=wrap;html=1;fillColor=#ffe6cc;strokeColor=#d79b00;" vertex="1" parent="WIyWlLk6GJQsqaUBKTNV-1">
                    <mxGeometry x="450" y="390" width="140" height="50" as="geometry"/>
                </mxCell>
                
                <!-- Email Notification -->
                <mxCell id="email-1" value="管理者への&#10;メール通知" style="rounded=1;whiteSpace=wrap;html=1;fillColor=#f0f0f0;strokeColor=#666666;" vertex="1" parent="WIyWlLk6GJQsqaUBKTNV-1">
                    <mxGeometry x="280" y="390" width="100" height="50" as="geometry"/>
                </mxCell>
                
                <!-- Admin -->
                <mxCell id="admin-1" value="管理者" style="shape=umlActor;verticalLabelPosition=bottom;verticalAlign=top;html=1;outlineConnect=0;fillColor=#dae8fc;strokeColor=#6c8ebf;" vertex="1" parent="WIyWlLk6GJQsqaUBKTNV-1">
                    <mxGeometry x="50" y="385" width="30" height="60" as="geometry"/>
                </mxCell>
                
                <!-- Approval -->
                <mxCell id="approval-1" value="承認処理" style="rounded=1;whiteSpace=wrap;html=1;fillColor=#f0f0f0;strokeColor=#666666;" vertex="1" parent="WIyWlLk6GJQsqaUBKTNV-1">
                    <mxGeometry x="280" y="480" width="100" height="40" as="geometry"/>
                </mxCell>
                
                <!-- Service Catalog -->
                <mxCell id="servicecatalog-1" value="AWS Service Catalog&#10;(AMI登録)" style="rounded=1;whiteSpace=wrap;html=1;fillColor=#d5e8d4;strokeColor=#82b366;" vertex="1" parent="WIyWlLk6GJQsqaUBKTNV-1">
                    <mxGeometry x="450" y="480" width="140" height="50" as="geometry"/>
                </mxCell>
                
                <!-- Arrows -->
                <mxCell id="arrow-1" value="Git Push" style="endArrow=classic;html=1;rounded=0;exitX=1;exitY=0.5;exitDx=0;exitDy=0;entryX=0;entryY=0.5;entryDx=0;entryDy=0;" edge="1" parent="WIyWlLk6GJQsqaUBKTNV-1" source="user-1" target="github-1">
                    <mxGeometry relative="1" as="geometry"/>
                </mxCell>
                
                <mxCell id="arrow-2" value="トリガー" style="endArrow=classic;html=1;rounded=0;exitX=1;exitY=0.5;exitDx=0;exitDy=0;entryX=0;entryY=0.5;entryDx=0;entryDy=0;" edge="1" parent="WIyWlLk6GJQsqaUBKTNV-1" source="github-1" target="codepipeline-1">
                    <mxGeometry relative="1" as="geometry"/>
                </mxCell>
                
                <mxCell id="arrow-3" value="" style="endArrow=classic;html=1;rounded=0;exitX=1;exitY=0.3;exitDx=0;exitDy=0;entryX=0;entryY=0.5;entryDx=0;entryDy=0;" edge="1" parent="WIyWlLk6GJQsqaUBKTNV-1" source="codepipeline-1" target="source-1">
                    <mxGeometry relative="1" as="geometry"/>
                </mxCell>
                
                <mxCell id="arrow-4" value="" style="endArrow=classic;html=1;rounded=0;exitX=1;exitY=0.5;exitDx=0;exitDy=0;entryX=0;entryY=0.5;entryDx=0;entryDy=0;" edge="1" parent="WIyWlLk6GJQsqaUBKTNV-1" source="codepipeline-1" target="build-1">
                    <mxGeometry relative="1" as="geometry"/>
                </mxCell>
                
                <mxCell id="arrow-5" value="" style="endArrow=classic;html=1;rounded=0;exitX=1;exitY=0.7;exitDx=0;exitDy=0;entryX=0;entryY=0.5;entryDx=0;entryDy=0;" edge="1" parent="WIyWlLk6GJQsqaUBKTNV-1" source="codepipeline-1" target="deploy-1">
                    <mxGeometry relative="1" as="geometry"/>
                </mxCell>
                
                <mxCell id="arrow-6" value="" style="endArrow=classic;html=1;rounded=0;exitX=1;exitY=0.5;exitDx=0;exitDy=0;entryX=0;entryY=0.5;entryDx=0;entryDy=0;" edge="1" parent="WIyWlLk6GJQsqaUBKTNV-1" source="build-1" target="codebuild-1">
                    <mxGeometry relative="1" as="geometry"/>
                </mxCell>
                
                <mxCell id="arrow-7" value="" style="endArrow=classic;html=1;rounded=0;exitX=1;exitY=0.5;exitDx=0;exitDy=0;entryX=0;entryY=0.5;entryDx=0;entryDy=0;" edge="1" parent="WIyWlLk6GJQsqaUBKTNV-1" source="codebuild-1" target="imagebuilder-1">
                    <mxGeometry relative="1" as="geometry"/>
                </mxCell>
                
                <mxCell id="arrow-8" value="" style="endArrow=classic;html=1;rounded=0;exitX=1;exitY=0.5;exitDx=0;exitDy=0;entryX=0;entryY=0.5;entryDx=0;entryDy=0;" edge="1" parent="WIyWlLk6GJQsqaUBKTNV-1" source="deploy-1" target="codedeploy-1">
                    <mxGeometry relative="1" as="geometry"/>
                </mxCell>
                
                <mxCell id="arrow-9" value="AMI作成完了" style="endArrow=classic;html=1;rounded=0;exitX=0.5;exitY=1;exitDx=0;exitDy=0;entryX=0.5;entryY=0;entryDx=0;entryDy=0;" edge="1" parent="WIyWlLk6GJQsqaUBKTNV-1" source="codedeploy-1" target="eventbridge-1">
                    <mxGeometry relative="1" as="geometry"/>
                </mxCell>
                
                <mxCell id="arrow-10" value="イベント検知" style="endArrow=classic;html=1;rounded=0;exitX=0;exitY=1;exitDx=0;exitDy=0;entryX=1;entryY=0;entryDx=0;entryDy=0;" edge="1" parent="WIyWlLk6GJQsqaUBKTNV-1" source="eventbridge-1" target="stepfunctions-1">
                    <mxGeometry relative="1" as="geometry"/>
                </mxCell>
                
                <mxCell id="arrow-11" value="メール送信" style="endArrow=classic;html=1;rounded=0;exitX=0;exitY=0.5;exitDx=0;exitDy=0;entryX=1;entryY=0.5;entryDx=0;entryDy=0;" edge="1" parent="WIyWlLk6GJQsqaUBKTNV-1" source="stepfunctions-1" target="email-1">
                    <mxGeometry relative="1" as="geometry"/>
                </mxCell>
                
                <mxCell id="arrow-12" value="通知" style="endArrow=classic;html=1;rounded=0;exitX=0;exitY=0.5;exitDx=0;exitDy=0;entryX=1;entryY=0.5;entryDx=0;entryDy=0;" edge="1" parent="WIyWlLk6GJQsqaUBKTNV-1" source="email-1" target="admin-1">
                    <mxGeometry relative="1" as="geometry"/>
                </mxCell>
                
                <mxCell id="arrow-13" value="承認" style="endArrow=classic;html=1;rounded=0;exitX=1;exitY=1;exitDx=0;exitDy=0;entryX=0;entryY=0.5;entryDx=0;entryDy=0;" edge="1" parent="WIyWlLk6GJQsqaUBKTNV-1" source="admin-1" target="approval-1">
                    <mxGeometry relative="1" as="geometry"/>
                </mxCell>
                
                <mxCell id="arrow-14" value="AMI登録" style="endArrow=classic;html=1;rounded=0;exitX=1;exitY=0.5;exitDx=0;exitDy=0;entryX=0;entryY=0.5;entryDx=0;entryDy=0;" edge="1" parent="WIyWlLk6GJQsqaUBKTNV-1" source="approval-1" target="servicecatalog-1">
                    <mxGeometry relative="1" as="geometry"/>
                </mxCell>
                
                <!-- Title -->
                <mxCell id="title-1" value="AWS CodePipeline CI/CD ワークフロー" style="text;html=1;strokeColor=none;fillColor=none;align=center;verticalAlign=middle;whiteSpace=wrap;rounded=0;fontSize=16;fontStyle=1;" vertex="1" parent="WIyWlLk6GJQsqaUBKTNV-1">
                    <mxGeometry x="450" y="20" width="280" height="30" as="geometry"/>
                </mxCell>
                
                <!-- Legend -->
                <mxCell id="legend-1" value="凡例" style="text;html=1;strokeColor=none;fillColor=none;align=left;verticalAlign=middle;whiteSpace=wrap;rounded=0;fontSize=12;fontStyle=1;" vertex="1" parent="WIyWlLk6GJQsqaUBKTNV-1">
                    <mxGeometry x="950" y="60" width="40" height="20" as="geometry"/>
                </mxCell>
                
                <mxCell id="legend-pipeline" value="Pipeline" style="rounded=1;whiteSpace=wrap;html=1;fillColor=#e1d5e7;strokeColor=#9673a6;fontSize=10;" vertex="1" parent="WIyWlLk6GJQsqaUBKTNV-1">
                    <mxGeometry x="950" y="85" width="60" height="25" as="geometry"/>
                </mxCell>
                
                <mxCell id="legend-aws" value="AWS Service" style="rounded=1;whiteSpace=wrap;html=1;fillColor=#d5e8d4;strokeColor=#82b366;fontSize=10;" vertex="1" parent="WIyWlLk6GJQsqaUBKTNV-1">
                    <mxGeometry x="950" y="115" width="80" height="25" as="geometry"/>
                </mxCell>
                
                <mxCell id="legend-workflow" value="Workflow" style="rounded=1;whiteSpace=wrap;html=1;fillColor=#ffe6cc;strokeColor=#d79b00;fontSize=10;" vertex="1" parent="WIyWlLk6GJQsqaUBKTNV-1">
                    <mxGeometry x="950" y="145" width="70" height="25" as="geometry"/>
                </mxCell>
                
                <mxCell id="legend-external" value="External" style="rounded=1;whiteSpace=wrap;html=1;fillColor=#f8cecc;strokeColor=#b85450;fontSize=10;" vertex="1" parent="WIyWlLk6GJQsqaUBKTNV-1">
                    <mxGeometry x="950" y="175" width="60" height="25" as="geometry"/>
                </mxCell>
                
            </root>
        </mxGraphModel>
    </diagram>
</mxfile>